<?xml version="1.0" encoding="utf-8"?>
<!-- Generator: Adobe Illustrator 27.2.0, SVG Export Plug-In . SVG Version: 6.00 Build 0)  -->
<svg version="1.1" xmlns="http://www.w3.org/2000/svg" xmlns:xlink="http://www.w3.org/1999/xlink" x="0px" y="0px"
	 viewBox="0 0 40 40" style="enable-background:new 0 0 40 40;" xml:space="preserve">
<style type="text/css">
	.st0{fill:none;stroke:#FFFFFF;stroke-width:2;}
	.st1{fill:none;stroke:#FFFFFF;stroke-width:2;stroke-linecap:round;stroke-linejoin:round;}
</style>
<g id="Layer_2">
	<rect width="40" height="40"/>
</g>
<g id="Layer_1">
	<circle class="st0" cx="20" cy="20" r="19"/>
	<path class="st1" d="M20,21c0.6,0,1-0.4,1-1s-0.4-1-1-1s-1,0.4-1,1S19.4,21,20,21z"/>
	<path class="st1" d="M20,14c0.6,0,1-0.4,1-1s-0.4-1-1-1s-1,0.4-1,1S19.4,14,20,14z"/>
	<path class="st1" d="M20,28c0.6,0,1-0.4,1-1s-0.4-1-1-1s-1,0.4-1,1S19.4,28,20,28z"/>
</g>
</svg>
